<svg width="86" height="86" viewBox="0 0 86 86" fill="none" xmlns="http://www.w3.org/2000/svg">
<path d="M24.8004 44.7917L44.2901 64.2814C44.6389 64.6302 44.8216 65.0411 44.8384 65.5141C44.8527 65.9871 44.6616 66.4207 44.265 66.8148C43.8733 67.1971 43.4516 67.3918 43.0001 67.3989C42.551 67.4037 42.1282 67.209 41.7316 66.8148L19.945 45.0282C19.632 44.7128 19.4122 44.3927 19.2856 44.0678C19.159 43.743 19.0957 43.387 19.0957 43C19.0957 42.613 19.159 42.2571 19.2856 41.9322C19.4122 41.6073 19.632 41.2884 19.945 40.9754L41.7316 19.1852C42.0661 18.8507 42.4734 18.6716 42.9535 18.6477C43.4361 18.6238 43.8745 18.803 44.2686 19.1852C44.6628 19.5793 44.8599 20.0046 44.8599 20.4608C44.8599 20.9195 44.6628 21.3459 44.2686 21.7401L24.7968 41.2083H66.2918C66.803 41.2083 67.2294 41.3791 67.571 41.7208C67.9126 42.0624 68.0835 42.4888 68.0835 43C68.0835 43.5112 67.9126 43.9377 67.571 44.2793C67.2294 44.6209 66.803 44.7917 66.2918 44.7917H24.8004Z" fill="black"/>
</svg>
